<?xml version="1.0" encoding="UTF-8" standalone="no"?>
<!-- Generated by SVGMaker - https://svgmaker.io -->
<!-- Prompt: image has been manually edited -->
<!-- Quality: medium -->
<!-- Type: crafted -->
<!-- Created: 2026-03-24T20:21:51.901Z -->
<svg xmlns="http://www.w3.org/2000/svg" xmlns:xlink="http://www.w3.org/1999/xlink" version="1.1" width="1536" height="1024" viewBox="0 0 2048 1365">
<desc>Created with SVGMaker Editor 3.0.0</desc>
<defs>
</defs>
<path transform="translate(0,0)" style="fill: rgb(0,68,170)" stroke-linecap="round" d="M1269.45 378.4368C1371.06 367.9623 1426.07 525.147 1404.96 604.9262 1398.95 627.6466 1393.64 640.3187 1381.46 660.4555 1414.67 669.5837 1446.23 685.7916 1454.29 721.7452 1465.78 772.9625 1433.03 816.5239 1391.25 841.4109 1375.51 850.7892 1359.9 863.3262 1350.15 878.7879 1342.05 891.643 1346.97 902.9537 1350.38 916.4409 1356.64 938.6482 1350.18 960.1354 1338.62 979.341 1312.97 1019.7977 1277.44 1041.763 1231.59 1055.1062 1187.63 1067.8993 1123.61 1055.2262 1123.74 998.4236 1123.76 991.964 1126.36 982.9809 1124.29 976.5063 1118.42 958.1469 1092.38 965.9958 1077.85 965.0966 1066.87 964.4084 1056.18 961.3297 1046.51 956.0744 1031.98 947.9725 1021.35 934.3412 1017.02 918.2784 1008.1 874.8309 1047.92 851.8774 1085.19 849.2928 1124.51 846.5641 1146.07 859.9254 1169.17 889.2544 1181.16 904.479 1195.47 909.2922 1193.23 934.1232 1192.35 943.9235 1189.62 952.8677 1190.07 962.544 1190.11 970.7029 1198.68 979.502 1207.17 977.9317 1217.61 976.0012 1224.67 964.9966 1227.71 955.7493 1236.07 931.0844 1212.96 910.5965 1200.52 891.711 1181.64 863.0361 1183.16 832.5318 1204.36 805.4873 1217.12 788.9873 1236.57 780.3223 1257.01 778.0077 1273.4 776.0942 1298.26 778.1307 1308.88 762.442 1317.44 749.8149 1316.3 732.5248 1302.58 724.2238 1286.33 714.3864 1269.41 717.3942 1251.73 715.0976 1214.35 710.2394 1188.42 671.9462 1217.3 640.6727 1238.16 617.5702 1268.58 610.0844 1286.78 584.3382 1310.2 551.1963 1296.12 508.9271 1261.58 490.4907 1252.71 485.5125 1242.97 481.4996 1234.62 475.6622 1210.8 459.0122 1203.9 427.2495 1222.11 403.7229 1234.6 387.578 1249.75 381.2625 1269.45 378.4368Z"></path>
<path transform="translate(0,0)" style="fill: rgb(1,68,170)" stroke-linecap="round" d="M1440.55 317.8357C1560.56 445.8605 1615.26 605.2887 1592.15 779.6215 1575.99 901.5398 1522.36 1007.9453 1432.69 1091.9655 1379.24 1141.1273 1316.86 1179.5865 1248.93 1205.2727 1223.77 1214.845 1186.36 1229.8286 1164.4 1206.643 1149.97 1191.4093 1149.32 1167.4936 1165.35 1154.3104 1178.57 1143.4278 1207.45 1134.7758 1224.14 1127.594 1239.51 1121.0024 1254.64 1113.8807 1269.51 1106.2389 1412.5 1032.2411 1505.57 887.9775 1514.05 727.1649 1521.52 603.0362 1486.42 489.3039 1403.23 395.6974 1395.74 387.2634 1387.55 378.9384 1379.69 370.8064 1383.17 371.2225 1386.88 371.5646 1390.32 371.9867 1417.31 375.3005 1444.71 358.8956 1442.11 329.1294 1441.78 325.3695 1441.13 321.5726 1440.55 317.8357Z"></path>
<path transform="translate(0,0)" style="fill: rgb(0,68,170)" stroke-linecap="round" d="M1095.47 326.4107C1117.67 324.1802 1140.44 327.486 1157.6 343.0617 1198.9 380.5457 1167.19 434.1085 1197.61 477.483 1217.39 505.6707 1243.3 502.609 1264.7 525.9826 1270.34 532.7852 1273.13 544.529 1271.32 553.1161 1259.97 606.933 1187.09 603.2371 1181.5 664.0957 1177.4 708.7675 1204.68 721.2604 1228.49 751.7688 1218.41 766.7184 1193.62 787.0492 1177.93 796.2064 1156.58 808.6744 1138.93 814.6329 1114.54 808.4884 1079.43 792.6356 1084.69 773.2849 1079.26 741.0872 1078.31 735.4909 1074.02 727.656 1070.73 722.9469 1060.17 707.8182 1042.15 702.924 1026.99 694.0449 1002.85 679.9485 996.418 650.2664 1011.3 627.0969 1027.73 601.5197 1057.59 603.1201 1083.8 597.3477 1104.62 592.7976 1125.19 580.1326 1136.41 561.9802 1144.51 549.0591 1147.06 533.4154 1143.48 518.5908 1132.14 470.6573 1091 475.1374 1058.21 457.2961 1026.86 440.24 1022.59 388.8117 1042.77 361.4861 1056.89 342.3605 1071.46 331.5729 1095.47 326.4107Z"></path>
<path transform="translate(0,0)" style="fill: rgb(1,68,170)" stroke-linecap="round" d="M871.925 169.5128C872.273 171.1742 872.193 171.5303 871.573 173.0226 866.004 186.4388 868.453 202.6807 874.33 215.5708 880.363 228.848 888.16 236.7669 898.318 246.6953 874.42 253.4129 852.627 259.9885 829.616 269.6198 729.168 311.941 645.682 386.5339 592.349 481.6137 560.568 538.1612 535.287 622.3014 535.938 687.5871 517.921 717.4983 479.373 731.0115 457.986 697.2034 454.801 692.1702 452.92 687.7421 450.612 682.3078 450.743 598.2887 479.213 500.3762 522.322 428.994 603.014 295.382 721.599 207.761 871.925 169.5128Z"></path>
<path transform="translate(0,0)" style="fill: rgb(1,68,170)" stroke-linecap="round" d="M450.612 680.3099C452.92 685.7442 454.801 690.1723 457.986 695.2055 479.373 729.0136 517.921 715.5004 535.938 685.5892 534.553 703.5895 535.887 722.7931 536.93 740.8065 546.082 898.9114 664.469 1034.2629 804.352 1099.9586 814.748 1104.9298 825.38 1109.3809 836.21 1113.3118 856.593 1120.5836 889.593 1128.4455 905.858 1142.7189 920.845 1155.872 923.126 1179.8578 907.652 1194.6614 881.967 1219.2372 850.213 1204.8838 820.841 1196.7819 735.698 1171.8459 661.716 1121.6038 600.452 1058.3286 501.803 957.5495 447.807 821.3268 450.612 680.3099Z"></path>
<path transform="translate(0,0)" style="fill: rgb(1,68,170)" stroke-linecap="round" d="M869.925 170.512C1028.26 132.977 1200.38 149.0939 1340.56 235.7527 1377.65 258.9942 1411.59 286.9179 1441.55 318.8336 1442.13 322.5705 1442.78 326.3674 1443.11 330.1273 1445.71 359.8935 1418.31 376.2984 1391.32 372.9846 1387.88 372.5625 1384.17 372.2204 1380.69 371.8043 1355.95 349.859 1336.72 333.8952 1308.36 315.4278 1209.98 250.9923 1092.47 222.2964 975.469 234.1393 946.926 236.944 924.185 241.8081 896.318 247.6945 886.16 237.7661 878.363 229.8472 872.33 216.5701 866.453 203.68 864.004 187.4381 869.573 174.0219 870.193 172.5295 870.273 172.1734 869.925 170.512Z"></path>
<path transform="translate(0,0)" style="fill: rgb(0,68,170)" stroke-linecap="round" d="M933.91 775.7661C874.451 762.894 879.001 808.0668 834.819 818.9774 806.867 825.8791 794.491 775.487 773.684 761.9958 732.592 735.3514 693.598 762.2108 654.081 728.0716 639.371 715.3336 630.446 697.1782 629.343 677.7476 625.258 614.3093 688.182 584.5372 741.771 583.691 770.612 583.2359 802.375 585.8615 811.654 619.0555 818.145 642.278 816.65 661.8557 837.26 678.6098 844.34 684.8073 848.336 686.2796 856.12 690.6367 888.564 708.795 915.148 691.5949 949.127 689.2293 932.159 702.8506 924.237 711.0245 920.299 733.655 916.577 755.0441 933.279 771.284 933.91 775.7661Z"></path>
<path transform="translate(0,0)" style="fill: rgb(0,68,170)" stroke-linecap="round" d="M773.519 419.4519C776.47 418.8378 784.949 418.8318 788.167 418.9078 841.018 420.1501 832.563 464.0996 858.544 480.6626 881.153 495.0761 920.232 493.0216 943.391 519.4199 961.153 538.8036 964.562 564.2727 963.981 589.7248 962.905 636.9081 935.083 675.3863 884.795 673.1168 846.984 666.1251 843.099 632.0119 846.889 599.5541 848.483 584.7516 844.044 567.6805 830.965 558.9524 799.322 536.39 756.62 571.1153 725.019 544.3199 673.182 500.3653 713.156 426.6797 773.519 419.4519Z"></path>
<path transform="translate(0,0)" style="fill: rgb(0,68,170)" stroke-linecap="round" d="M724.492 787.5908C769.881 790.6755 763.208 822.4161 794.071 841.5237 810.894 851.9392 836.641 849.4616 857.445 857.7926 878.382 866.1756 883.213 885.6713 897.244 892.0528 918.146 901.075 942.562 899.7197 961.44 914.5642 1008.5 951.5691 978.219 1011.0064 925.332 1018.3481 892.295 1019.0383 859.338 1001.8142 858.718 963.1789 858.484 948.6074 864.864 935.8423 849.724 924.9767 827.338 908.9099 796.655 921.995 771.717 923.5644 745.704 925.5099 722.24 920.4626 702.031 903.4046 673.318 879.6098 658.954 836.4175 686.498 806.0252 698.053 793.2751 707.345 788.726 724.492 787.5908Z"></path>
<path transform="translate(0,0)" style="fill: rgb(0,68,170)" stroke-linecap="round" d="M920.728 336.4827C935.177 332.9398 957.664 338.8772 969.86 346.8312 998.277 365.3616 998.609 398.4615 1004.37 428.2787 1010.26 460.6105 1028.2 482.6737 1061.88 489.1093 1095.05 495.4468 1129.45 518.5824 1106.28 556.0754 1095.27 573.9026 1070.07 581.5885 1050.1 585.1413 1041.58 585.6014 1026.24 586.3376 1018 584.2851 969.721 572.2692 1002.54 517.9682 961.001 488.6552 935.95 469.1985 900.146 477.7556 875.508 457.8308 847.407 435.1073 846.122 390.8227 868.965 364.0433 883.542 346.9542 898.879 338.7262 920.728 336.4827Z"></path>
<path transform="translate(0,0)" style="fill: rgb(0,68,170)" stroke-linecap="round" d="M948.127 689.2297C966.422 689.1376 983.244 692.8115 997.087 705.2095 1012.1 718.6507 1029.7 719.5259 1044.14 731.8139 1051.98 738.4835 1054.24 752.6509 1054.01 762.1762 1053.11 793.7377 1048.52 799.9712 1069.8 824.7012 1056.84 832.7991 1043.25 840.0689 1029.41 847.3696 994.226 865.9201 964.693 883.5473 923.425 876.0855 868.846 866.2171 865.031 794.5279 925.259 797.9998 931.308 798.3488 940.284 798.0918 944.407 792.9676 945.532 786.469 938.576 777.9439 932.91 775.7664 932.279 771.2844 915.577 755.0445 919.299 733.6553 923.237 711.0249 931.159 702.8509 948.127 689.2297Z"></path>
</svg>